<?xml version="1.0" encoding="UTF-8"?>
<!DOCTYPE svg PUBLIC "-//W3C//DTD SVG 1.1//EN" "http://www.w3.org/Graphics/SVG/1.1/DTD/svg11.dtd">
<svg xmlns="http://www.w3.org/2000/svg" version="1.1" width="30px" height="30px" style="shape-rendering:geometricPrecision; text-rendering:geometricPrecision; image-rendering:optimizeQuality; fill-rule:evenodd; clip-rule:evenodd" xmlns:xlink="http://www.w3.org/1999/xlink">
<g><path style="opacity:0.852" fill="#000000" d="M 19.5,2.5 C 21.8122,4.14552 23.8122,6.14552 25.5,8.5C 23.8509,10.6499 22.0176,12.6499 20,14.5C 19.51,13.2068 19.3433,11.8734 19.5,10.5C 15.7846,10.1961 12.2846,10.8627 9,12.5C 8.2419,14.7695 8.40857,16.9361 9.5,19C 12.0627,20.0793 14.7294,20.5793 17.5,20.5C 17.5,21.8333 17.5,23.1667 17.5,24.5C 6.84343,26.3419 2.34343,22.0085 4,11.5C 4.46524,10.0692 5.29857,8.90252 6.5,8C 10.6996,6.63256 15.0329,6.13256 19.5,6.5C 19.5,5.16667 19.5,3.83333 19.5,2.5 Z"/></g>
</svg>
