<?xml version="1.0" encoding="UTF-8"?>
<!DOCTYPE svg PUBLIC "-//W3C//DTD SVG 1.1//EN" "http://www.w3.org/Graphics/SVG/1.1/DTD/svg11.dtd">
<svg xmlns="http://www.w3.org/2000/svg" version="1.1" width="48px" height="48px" style="shape-rendering:geometricPrecision; text-rendering:geometricPrecision; image-rendering:optimizeQuality; fill-rule:evenodd; clip-rule:evenodd" xmlns:xlink="http://www.w3.org/1999/xlink">
<g><path style="opacity:0.964" fill="#000000" d="M 18.5,3.5 C 25.5,4.16667 32.5,4.83333 39.5,5.5C 39.5,6.83333 39.5,8.16667 39.5,9.5C 28.8333,9.5 18.1667,9.5 7.5,9.5C 7.5,8.16667 7.5,6.83333 7.5,5.5C 10.8499,5.66501 14.1832,5.49834 17.5,5C 18.056,4.61742 18.3893,4.11742 18.5,3.5 Z"/></g>
<g><path style="opacity:0.968" fill="#000000" d="M 9.5,13.5 C 18.8333,13.5 28.1667,13.5 37.5,13.5C 37.6665,23.1724 37.4998,32.8391 37,42.5C 28,43.8333 19,43.8333 10,42.5C 9.5002,32.8391 9.33353,23.1724 9.5,13.5 Z M 16.5,18.5 C 17.4959,18.4142 18.3292,18.7476 19,19.5C 19.6667,25.5 19.6667,31.5 19,37.5C 18,38.8333 17,38.8333 16,37.5C 15.2098,31.0853 15.3765,24.752 16.5,18.5 Z M 28.5,18.5 C 29.4959,18.4142 30.3292,18.7476 31,19.5C 31.6667,25.5 31.6667,31.5 31,37.5C 30,38.8333 29,38.8333 28,37.5C 27.2098,31.0853 27.3765,24.752 28.5,18.5 Z"/></g>
</svg>
