<?xml version="1.0" encoding="UTF-8"?>
<!DOCTYPE svg PUBLIC "-//W3C//DTD SVG 1.1//EN" "http://www.w3.org/Graphics/SVG/1.1/DTD/svg11.dtd">
<svg xmlns="http://www.w3.org/2000/svg" version="1.1" width="30px" height="30px" style="shape-rendering:geometricPrecision; text-rendering:geometricPrecision; image-rendering:optimizeQuality; fill-rule:evenodd; clip-rule:evenodd" xmlns:xlink="http://www.w3.org/1999/xlink">
<g><path style="opacity:0.851" fill="#000000" d="M 8.5,2.5 C 9.43448,3.56764 9.76781,4.90097 9.5,6.5C 13.9671,6.13256 18.3004,6.63256 22.5,8C 26.5,13 26.5,18 22.5,23C 18.9743,24.3368 15.3076,24.8368 11.5,24.5C 11.5,23.1667 11.5,21.8333 11.5,20.5C 14.2706,20.5793 16.9373,20.0793 19.5,19C 20.5914,16.9361 20.7581,14.7695 20,12.5C 16.7154,10.8627 13.2154,10.1961 9.5,10.5C 9.65668,11.8734 9.49001,13.2068 9,14.5C 6.98239,12.6499 5.14905,10.6499 3.5,8.5C 5.18973,6.48073 6.85639,4.48073 8.5,2.5 Z"/></g>
</svg>
